<?xml version="1.0" encoding="utf-8"?>
<!-- Generator: Adobe Illustrator 27.5.0, SVG Export Plug-In . SVG Version: 6.00 Build 0)  -->
<svg version="1.1" id="Layer_1" xmlns="http://www.w3.org/2000/svg" xmlns:xlink="http://www.w3.org/1999/xlink" x="0px" y="0px"
	 viewBox="0 0 3500 2000" style="enable-background:new 0 0 3500 2000;" xml:space="preserve">
<rect style="fill:#FFFFFF;" width="3500" height="2000"/>
<g>
	<path style="fill:#F4F7FD;" d="M593.737,702.537c27.214,30.203,57.746,31.934,109.645,50.287
		c77.917,27.554,177.099,110.034,128.847,203.456c-19.401,37.563-61.021,58.799-102.362,67.649
		c-83.862,17.953-174.646-7.553-237.04-66.358c-53.27-50.206-84.476-123.503-83.307-196.778c0-0.014,0-0.027,0.001-0.041
		c0.747-45.63,24.151-122.711,67.379-146.16c51.832-28.111,72.821,14.74,94.136,54.466
		C578.609,683.176,586.04,693.995,593.737,702.537z"/>
	<path style="fill:#F4F7FD;" d="M855.629,355.517c-72.682,94.235-130.427,241.379-51.933,349.468
		c48.083,66.213,142.458,103.212,217.855,60.389c59.499-33.796,83.094-100.604,119.104-154.693
		c39.61-59.496,88.977-89.82,155.757-113.156c84.265-29.447,226.905-103.205,152.512-215.347
		c-15.426-23.253-38.345-40.58-62.462-54.618c-145.423-84.649-331.187-50.721-458.004,52.388
		C903.127,300.544,878.127,326.349,855.629,355.517z"/>
	<path style="fill:#F4F7FD;" d="M1584.173,496.201c-108.769,99.292-81.571,268.037-151.925,389.502
		c-19.649,33.924-44.479,65.338-57.499,102.316c-27.388,77.78,25.973,149.366,102.786,164.064
		c75.076,14.366,160.46-10.418,226.714-45.364c150.492-79.377,202.366-268.134,221.559-424.988
		c7.187-58.738,3.756-120.977-24.656-172.897c-63.577-116.177-217.375-93.539-306.334-21.769
		C1591.131,490.04,1587.585,493.086,1584.173,496.201z"/>
	<path style="fill:#F4F7FD;" d="M984.047,961.807c-5.293,6.965-9.63,14.827-12.751,23.561
		c-59.014,165.162,272.205,133.55,183.629-16.913C1119.166,907.714,1024.167,909.007,984.047,961.807z"/>
</g>
<path style="fill:#F4F7FD;" d="M445.365,1883.527h2652.649c16.913-128.589,6.151-248.702-16.519-376.402
	c-11.206-63.126-27.362-125.843-55.021-183.683c-30.763-64.332-75.188-121.38-124.838-172.564
	c-115.429-118.996-263.015-209.106-425.009-244.349c-161.994-35.243-338.166-13.064-480.054,72.678
	c-179.592,108.526-307.809,314.751-514.754,349.46c-79.757,13.376-161.217-1.533-240.807-15.867
	c-125.617-22.622-254.826-43.882-380.096-19.411c-126.593,24.729-243.226,97.372-321.25,200.084
	C461.644,1596.184,435.236,1754.94,445.365,1883.527z"/>
<g>
	<g>
		<g>
			<g>
				<g>
					<g>
						<path style="fill:#102A54;" d="M985.215,942.968l25.031,9.172l3.218,11.886l31.969,27.478
							c4.28,3.679,5.829,9.627,3.887,14.927l0,0l-81.551-29.883c-3.995-1.464-5.586-6.265-3.257-9.825L985.215,942.968z"/>
					</g>
					<polygon style="fill:#FFC0B1;" points="1017.418,930.56 1010.246,952.14 985.215,942.968 989.561,924.317 					"/>
				</g>
				<g>
					<g>
						<path style="fill:#102A54;" d="M640.395,1068.778l21.673,15.523l-0.073,12.314l23.471,35.017
							c3.143,4.688,3.047,10.834-0.239,15.423l0,0l-70.611-50.572c-3.459-2.477-3.711-7.529-0.516-10.338L640.395,1068.778z"/>
					</g>
					<polygon style="fill:#FFC0B1;" points="674.742,1065.419 662.068,1084.301 640.395,1068.778 649.564,1051.965 					"/>
				</g>
				<path style="fill:#0C203F;" d="M898.553,659.6c4.937-1.725,190.39-11.898,218.355,12.322
					c27.965,24.221-92.699,266.497-92.699,266.497l-44.183-7.859l57.402-196.017c0,0-153.072,65.567-200.172,45.964
					C790.157,760.905,801.932,659.6,801.932,659.6H898.553z"/>
				<path style="fill:#102A54;" d="M801.932,659.6L768.18,851.58l-125.57,201.85l33.105,18.256c0,0,143.31-162.66,158.347-175.992
					c15.037-13.332,103.766-216.153,103.766-216.153L801.932,659.6z"/>
			</g>
			<g>
				<g>
					<path style="fill:#FFC0B1;" d="M769.564,465.111l-58.646,24.68c-4.482,1.886-8.827,4.083-13.002,6.575l-131.581,78.52
						l11.403,24.434l144.639-59.554c2.479-1.021,5.011-1.909,7.585-2.66l51.709-15.09L769.564,465.111z"/>
					<path style="fill:#FFC0B1;" d="M566.335,574.885c0,0-23.49,3.031-25.062,6.387s-7.679,22.808-7.679,24.927
						c0,2.119,15.185,15.185,20.836,14.479c1.993-0.249,5.943-3.174,10.219-6.85c2.356,0.421,4.352,0.588,5.408,0.303
						c3.973-1.074,11.384-16.335,11.384-16.335S571.688,574.103,566.335,574.885z"/>
					<path style="fill:#102A54;" d="M564.65,614.884c-0.071,0-0.143-0.008-0.216-0.022c-15.644-3.246-16.24-3.842-16.494-4.097
						c-0.247-0.246-0.501-0.698-0.314-1.452c0.428-1.724,3.829-6.141,6.605-6.995c2.326-0.715,9.257-0.343,12.259-0.139
						c-0.272-2.172-0.682-6.549-0.055-9.621c-2.937-0.86-11.413-3.517-14.685-6.426c-0.436-0.388-0.475-1.055-0.088-1.49
						c0.387-0.436,1.054-0.476,1.49-0.088c3.536,3.143,14.73,6.223,14.843,6.253c0.28,0.076,0.516,0.265,0.653,0.52
						c0.137,0.256,0.163,0.557,0.071,0.832c-1.158,3.473,0.029,10.925,0.041,10.999c0.051,0.32-0.047,0.646-0.266,0.884
						c-0.22,0.238-0.541,0.359-0.86,0.337c-2.852-0.228-10.709-0.681-12.78-0.043c-1.768,0.544-4.293,3.622-4.998,5.02
						c2.253,0.69,9.75,2.347,15.009,3.438c0.571,0.119,0.938,0.677,0.819,1.248C565.579,614.541,565.14,614.884,564.65,614.884z"/>
				</g>
				<g>
					<path style="fill:#FFC0B1;" d="M892.45,435.187L892.45,435.187c-9.658,0-17.27-8.227-16.522-17.856l4.486-57.697h23.425
						l5.118,57.513C909.819,426.841,902.182,435.187,892.45,435.187z"/>
					<path style="fill:#FFC0B1;" d="M876.079,311.518h74.102l-0.618,4.596c-2.137,15.89-2.818,31.956-1.754,47.953
						c0.509,7.654-0.038,16.772-3.857,24.146c-7.491,14.464-24.932,20.94-39.73,14.132
						C889.306,395.483,866.222,373.979,876.079,311.518z"/>
					<path style="fill:#102A54;" d="M924.524,365.737h-6.843c-0.431,0-0.78-0.349-0.78-0.78s0.349-0.78,0.78-0.78h6.843
						c0.591,0,1.136-0.27,1.494-0.74c0.359-0.471,0.473-1.068,0.315-1.638l-5.937-21.432c-0.115-0.415,0.129-0.845,0.544-0.96
						c0.415-0.112,0.845,0.129,0.96,0.544l5.937,21.432c0.289,1.043,0.078,2.137-0.577,2.998
						C926.604,365.243,925.607,365.737,924.524,365.737z"/>
					<path style="fill:#102A54;" d="M912.13,342.385c0,2.078-1.685,3.763-3.763,3.763c-2.078,0-3.763-1.685-3.763-3.763
						c0-2.078,1.685-3.763,3.763-3.763C910.446,338.622,912.13,340.307,912.13,342.385z"/>
					<path style="fill:#102A54;" d="M938.969,341.643c0,2.078-1.685,3.763-3.763,3.763c-2.078,0-3.763-1.685-3.763-3.763
						c0-2.078,1.685-3.763,3.763-3.763C937.284,337.88,938.969,339.564,938.969,341.643z"/>
					<path style="fill:#102A54;" d="M907.761,404.489c-0.08,0-0.161-0.012-0.242-0.039c-0.442-0.144-10.902-3.629-18.133-12.132
						c-0.279-0.328-0.239-0.82,0.089-1.099c0.328-0.28,0.821-0.239,1.1,0.089c6.938,8.158,17.325,11.625,17.429,11.66
						c0.409,0.134,0.633,0.574,0.499,0.984C908.395,404.28,908.089,404.489,907.761,404.489z"/>
					<g>
						<path style="fill:#FFFFFF;" d="M930.431,375.914c-0.584-0.117-12.969,0.818-20.446-7.828c0,0-0.497,10.632,7.697,12.852
							C925.874,383.158,930.431,375.914,930.431,375.914z"/>
						<path style="fill:#102A54;" d="M922.861,375.992c-0.024,0-0.049-0.001-0.073-0.003c-7.804-0.724-13.18-7.134-13.405-7.406
							c-0.274-0.332-0.227-0.823,0.104-1.098c0.333-0.275,0.824-0.229,1.098,0.104c0.051,0.062,5.2,6.184,12.347,6.846
							c0.429,0.04,0.745,0.42,0.705,0.849C923.6,375.689,923.26,375.992,922.861,375.992z"/>
					</g>
					<path style="fill:#102A54;" d="M982.351,303.633c-0.315-0.852-0.681-1.687-1.095-2.495
						c-3.349-6.542-9.593-11.302-16.442-13.718c-3.685-1.3-7.565-2.034-11.459-2.303c-1.94-0.134-3.889-0.15-5.832-0.049
						c-0.797,0.041-5.208,1.026-5.652,0.631c-6.54-5.82-16.67-6.628-25.415-6.209c-3.238,0.155-6.611,0.533-9.329,2.3
						c-0.316,0.205-0.616,0.427-0.902,0.662c-14.259-5.125-20.299,11.045-32.147,13.562c-3.684,0.783-7.508-0.178-11.268,0.035
						c-4.91,0.277-9.664,2.661-12.825,6.428c-3.26,3.887-4.746,8.958-7.6,13.152c-4.897,7.196-13.074,11.067-19.076,17.168
						c-13.595,13.822-10.783,38.658-1.276,53.903c6.247,10.017,16.878,17.505,28.618,18.74c11.74,1.235,24.247-4.367,30.127-14.603
						c6.918-12.045,3.951-27.038,4.877-40.897c0.444-6.64,2.187-13.8,7.46-17.859c5.969-4.595,14.43-3.771,21.452-6.498
						c2.393-0.929,4.59-2.316,6.517-4.011c3.055,2.65,6.328,5.004,9.962,6.778c8.045,3.927,17.356,4.88,26.159,3.661
						c7.753-1.073,18.315-3.891,23.35-10.354C984.431,316.681,984.444,309.292,982.351,303.633z"/>
				</g>
				<g>
					<path style="fill:#FFC0B1;" d="M1187.769,334.684l-14.619-5.775c-4.846-1.915-10.256,0.949-11.397,6.033l-6.573,29.275
						l-52.368,117.594l-66.464-15.193l-13.69,55.968l89.248,10.273c3.715,0.428,7.478,0.057,11.039-1.088l0,0
						c8.541-2.745,15.089-9.661,17.365-18.339l36.622-139.659l13.866-19.904l2.341-11.293
						C1193.136,339.094,1191.008,335.964,1187.769,334.684z"/>
					<path style="fill:#102A54;" d="M1184.57,361.924c-0.057,0-0.115-0.006-0.173-0.02c-0.421-0.095-0.684-0.513-0.588-0.933
						l2.644-11.634c0.157-0.689,0.712-1.178,1.414-1.247c0.7-0.067,1.34,0.304,1.629,0.948l2.013,4.513
						c0.176,0.394-0.001,0.855-0.395,1.03c-0.395,0.175-0.855-0.002-1.03-0.395l-2.013-4.513l-2.74,11.643
						C1185.248,361.679,1184.926,361.924,1184.57,361.924z"/>
					<path style="fill:#102A54;" d="M1114.401,506.092c-0.391,0-0.768-0.216-0.955-0.59l-11.59-23.215
						c-0.263-0.527-0.049-1.167,0.478-1.43c0.527-0.264,1.167-0.049,1.43,0.478l11.59,23.215c0.263,0.527,0.049,1.167-0.478,1.43
						C1114.723,506.056,1114.561,506.092,1114.401,506.092z"/>
				</g>
				<path style="fill:#E6515C;" d="M937.882,427.013c0,0-46.183-18.257-62.004-12.092l0,0l0,0c-0.223,0.087-0.443,0.176-0.654,0.273
					l-117.923,49.232l14.905,67.937l70.407-13.157c-1.536,7.196-2.873,14.108-3.921,20.47c-3.496,21.242-10.402,41.773-20.46,60.808
					l-42.699,80.806c-7.742,39.512,161.425,35.143,161.425,35.143c32.015-31.378,40.022-187.298,40.022-187.298l71.963,3.96
					l13.238-65.817L937.882,427.013z"/>
				<path style="fill:#102A54;" d="M842.613,520.272c-0.077,0-0.156-0.008-0.235-0.026c-0.574-0.129-0.935-0.7-0.806-1.274
					c0.108-0.48,10.902-48.358,18.957-72.313c0.188-0.558,0.793-0.861,1.351-0.671c0.558,0.188,0.858,0.792,0.67,1.35
					c-8.021,23.851-18.79,71.622-18.898,72.101C843.541,519.935,843.101,520.272,842.613,520.272z"/>
			</g>
		</g>
		<path style="fill:#102A54;" d="M985.08,530.504c-0.02,0-0.039,0-0.059-0.002l-38.303-2.075c-0.588-0.032-1.039-0.534-1.007-1.122
			c0.031-0.589,0.542-1.038,1.122-1.007l38.303,2.075c0.588,0.032,1.039,0.534,1.007,1.122
			C986.113,530.064,985.643,530.504,985.08,530.504z"/>
	</g>
	<g>
		<g>
			<g>
				<path style="fill:#FFC0B1;" d="M1022.032,862.945l-15.478,2.314l-44.755-13.867c-1.222-0.379-2.483,0.464-2.6,1.738l0,0
					c-0.253,2.751,1.038,5.417,3.354,6.924l12.727,8.282l-40.588-0.742c-6.034-0.377-11.001,4.682-10.513,10.708l0.998,12.328
					c0.331,4.087,3.14,7.55,7.071,8.716l28.326,8.403c1.859,0.551,3.838,0.546,5.694-0.014l46.836-14.151l13.067-0.861
					L1022.032,862.945z"/>
				<path style="fill:#102A54;" d="M981.31,889.29c-0.246,0-0.492-0.09-0.685-0.272c-7.048-6.654-6.373-20.166-6.341-20.738
					c0.031-0.55,0.505-0.976,1.052-0.941c0.55,0.031,0.972,0.502,0.941,1.052c-0.007,0.131-0.651,13.161,5.719,19.174
					c0.401,0.379,0.419,1.01,0.041,1.411C981.84,889.185,981.575,889.29,981.31,889.29z"/>
			</g>
			<g>
				<path style="fill:#FFC0B1;" d="M1409.547,567.503l37.85,4.915c10.306,1.338,18.224,9.797,18.853,20.17
					c0.746,12.294,2.027,28.212,4.047,38.502c1.764,8.989,2.499,19.873-0.905,29.186c-6.678,18.27-26.355,28.587-44.916,22.768
					c-16.653-5.221-43.584-30.872-41.018-93.63C1384.011,575.88,1396.114,565.759,1409.547,567.503z"/>
				<path style="fill:#FFC0B1;" d="M1393.806,726.539L1393.806,726.539c-12.232-1.773-20.363-13.589-17.647-25.647l16.272-72.25
					l29.667,4.3l-4.076,73.78C1417.335,719.156,1406.131,728.326,1393.806,726.539z"/>
				<path style="fill:#102A54;" d="M1435.976,635.256c-0.495,0-0.925-0.368-0.989-0.872c-0.07-0.546,0.317-1.047,0.864-1.117
					l8.687-1.112c0.75-0.096,1.397-0.527,1.775-1.183c0.378-0.656,0.426-1.432,0.133-2.129l-11.021-26.241
					c-0.213-0.508,0.025-1.094,0.534-1.307c0.509-0.213,1.094,0.026,1.307,0.534l11.022,26.241c0.536,1.278,0.448,2.699-0.244,3.899
					c-0.692,1.201-1.878,1.991-3.252,2.167l-8.688,1.112C1436.061,635.253,1436.018,635.256,1435.976,635.256z"/>
				<path style="fill:#102A54;" d="M1425.261,606.508c0.338,2.638-1.527,5.05-4.164,5.388c-2.638,0.338-5.05-1.527-5.388-4.164
					c-0.338-2.638,1.526-5.05,4.164-5.388C1422.511,602.006,1424.923,603.87,1425.261,606.508z"/>
				<path style="fill:#102A54;" d="M1459.208,601.202c0.338,2.638-1.527,5.05-4.164,5.388c-2.638,0.338-5.05-1.527-5.388-4.164
					c-0.338-2.638,1.527-5.05,4.164-5.388S1458.87,598.564,1459.208,601.202z"/>
				<path style="fill:#102A54;" d="M1425.551,599.346l-19.642,2.516c-1.447,0.185-2.771-0.838-2.956-2.285l0,0
					c-0.185-1.447,0.837-2.771,2.284-2.956l19.642-2.516c1.447-0.185,2.771,0.837,2.956,2.285l0,0
					C1428.021,597.838,1426.998,599.161,1425.551,599.346z"/>
				<path style="fill:#102A54;" d="M1463.348,593.487l-19.642,2.516c-1.447,0.185-2.77-0.838-2.956-2.285l0,0
					c-0.185-1.447,0.838-2.771,2.285-2.956l19.642-2.516c1.447-0.185,2.77,0.838,2.956,2.285l0,0
					C1465.818,591.979,1464.795,593.302,1463.348,593.487z"/>
				<g>
					<path style="fill:#FFFFFF;" d="M1425.408,640.146c0,0,12.907,6.051,26.798,5.316
						C1452.205,645.462,1437.033,662.677,1425.408,640.146z"/>
					<path style="fill:#102A54;" d="M1444.268,646.208c-0.03,0-0.061-0.001-0.092-0.004c-11.819-1.074-20.114-6.125-20.461-6.34
						c-0.469-0.29-0.614-0.904-0.325-1.373c0.289-0.47,0.904-0.614,1.374-0.326c0.081,0.05,8.263,5.021,19.593,6.051
						c0.549,0.05,0.954,0.535,0.904,1.085C1445.214,645.819,1444.778,646.208,1444.268,646.208z"/>
				</g>
				<path style="fill:#102A54;" d="M1395.178,547.667c0,0,19.175-28.202,43.81-14.674c24.635,13.529,56.194,40.078,56.194,40.078
					s-20.995,17.973-28.932,19.517c-7.937,1.544-64.985-18.825-64.985-18.825l-15.385,53.234c0,0-23.649-41.628-20.672-57.832
					C1368.184,552.96,1395.178,547.667,1395.178,547.667z"/>
				<path style="fill:#FFC0B1;" d="M1395.87,621.75c2.291,9.575-0.405,18.426-6.021,19.77c-5.616,1.344-12.025-5.329-14.316-14.904
					c-2.291-9.575,0.405-18.426,6.021-19.77C1387.17,605.502,1393.58,612.175,1395.87,621.75z"/>
				<path style="fill:#102A54;" d="M1419.427,682.403c-0.131,0-0.263-0.026-0.391-0.081c-0.424-0.181-10.458-4.574-17.109-17.489
					c-0.253-0.49-0.06-1.092,0.431-1.345c0.492-0.251,1.092-0.059,1.345,0.431c6.303,12.241,16.02,16.525,16.118,16.567
					c0.506,0.217,0.741,0.804,0.524,1.31C1420.183,682.175,1419.815,682.403,1419.427,682.403z"/>
				<path style="fill:#102A54;" d="M1390.377,631.531c-0.016,0-0.033-0.001-0.049-0.001c-0.551-0.026-0.976-0.494-0.95-1.045
					c0.5-10.427-8.214-19.338-8.302-19.426c-0.389-0.391-0.386-1.024,0.005-1.412c0.392-0.388,1.025-0.385,1.412,0.005
					c0.385,0.388,9.421,9.633,8.88,20.928C1391.348,631.115,1390.906,631.531,1390.377,631.531z"/>
			</g>
			<path style="fill:#3C94F8;" d="M1758.773,822.814l-174.275-8.735c-3.917-0.319-7.695-1.595-11.002-3.716l-155.984-100.036
				l0.039,0.184l-33.376-9.563l-46.816,323.02l126.95,29.012c0,0,13.902-120.209,12.271-204.03l66.485,23.801
				c15.06,5.392,31.134,7.356,47.05,5.749l169.097-17.071L1758.773,822.814z"/>
			<g>
				<g>
					<g>
						<path style="fill:#102A54;" d="M1713.912,1481.418l26.548-13.663l12.234,6.367l46.894-5.489
							c6.279-0.735,12.354,2.502,15.247,8.123l0,0l-86.493,44.513c-4.237,2.18-9.4-0.151-10.566-4.771L1713.912,1481.418z"/>
					</g>
					<polygon style="fill:#FFC0B1;" points="1725.278,1448.746 1740.461,1467.756 1713.912,1481.418 1697.556,1463.746 					"/>
				</g>
				<g>
					<g>
						<path style="fill:#102A54;" d="M1103.34,1447.283l16.211,25.073l-5.131,12.802l10.081,46.125
							c1.35,6.176-1.273,12.541-6.581,15.973l0,0l-52.816-81.688c-2.587-4.001-0.775-9.369,3.707-10.984L1103.34,1447.283z"/>
					</g>
					<polygon style="fill:#FFC0B1;" points="1136.973,1455.375 1119.551,1472.357 1103.34,1447.283 1119.315,1429.266 					"/>
				</g>
				<path style="fill:#102A54;" d="M1262.116,1007.518l8.221,230.372l-164.482,193.419l35.164,31.591l196.251-152.814
					c14.279-11.119,25.512-25.669,32.655-42.297l0,0c3.893-9.064,6.518-18.622,7.799-28.404l27.648-211.105L1262.116,1007.518z"/>
				<path style="fill:#102A54;" d="M1444.948,1022.489l154.81,178.616l141.868,245.551l-55.506,33.151l-153.901-217.191
					l-187.547-138.092c0,0-89.557-16.149-75.792-132.986L1444.948,1022.489z"/>
				<path style="fill:#0C203F;" d="M1388.537,1156.821l5.607-64.037c0,0,55.008,108.669,53.952,107.891
					C1447.04,1199.897,1388.537,1156.821,1388.537,1156.821z"/>
			</g>
			<path style="fill:#FFFFFF;" d="M1376.421,698.627c0,0,28.364,13.142,41.162,11.719c0,0,31.842,47.433,39.879,95.841
				c9.787,58.951-12.514,216.302-12.514,216.302l-151.104-18.654L1376.421,698.627z"/>
			<path style="fill:#80C0FF;" d="M1417.583,710.346c-1.457,0.022-43.997-12.501-43.997-12.501s23.672,24.621,32.355,24.738
				C1414.624,722.701,1417.583,710.346,1417.583,710.346z"/>
			<g>
				<g>
					<path style="fill:#3C94F8;" d="M1397.053,714.02c-12.242-19.001-38.724-22.643-55.448-7.438
						c-0.583,0.53-1.159,1.076-1.733,1.63l-141.38,100.081c-4.338,3.071-9.177,5.364-14.3,6.778l-173.182,39.915l8.089,42.217
						l184.308-15.872c11.328-1.251,22.411-4.159,32.894-8.63l44.051-18.789c-4.939,24.94-7.036,42.603-7.036,42.603l-64.422,133.828
						l165.648,57.488c0,0,33.372-177.404,44.022-238.54C1426.023,806.473,1416.878,744.792,1397.053,714.02z"/>
					<path style="fill:#102A54;" d="M1280.353,854.911c-0.365,0-0.717-0.201-0.892-0.55c-0.248-0.492-0.05-1.093,0.442-1.341
						l75.99-38.292c0.493-0.249,1.093-0.051,1.34,0.442c0.248,0.492,0.05,1.093-0.442,1.341l-75.99,38.292
						C1280.657,854.877,1280.505,854.911,1280.353,854.911z"/>
				</g>
				<polygon style="fill:#102A54;" points="1372.581,991.185 1305.579,967.643 1303.143,974.205 1369.85,998.178 				"/>
			</g>
			<path style="fill:#102A54;" d="M1414.607,709.509c0,0,23.815,118.73-54.613,194.593l-5.357,36.961l35.451-18.371
				c0,0,77.751-101.42,27.495-212.346L1414.607,709.509z"/>
			<path style="fill:#102A54;" d="M1476.581,849.947c-0.002,0-0.003,0-0.005,0c-0.551-0.003-0.996-0.452-0.994-1.003
				c0.001-0.396,0.082-39.9-8.565-61.951c-0.201-0.513,0.052-1.093,0.565-1.294c0.512-0.202,1.093,0.052,1.294,0.565
				c8.787,22.407,8.704,62.289,8.702,62.689C1477.576,849.503,1477.13,849.947,1476.581,849.947z"/>
		</g>
		<g>
			<g>
				<g>
					<path style="fill:#80C0FF;" d="M1849.064,920.195l-80.683-20.203c-3.372-0.844-5.421-4.262-4.577-7.634l29.677-118.521
						c0.844-3.372,4.262-5.421,7.634-4.577l80.683,20.203c3.372,0.844,5.421,4.262,4.577,7.634l-29.677,118.521
						C1855.854,918.99,1852.436,921.039,1849.064,920.195z"/>
					
						<rect x="1785.503" y="788.446" transform="matrix(0.9701 0.2429 -0.2429 0.9701 259.685 -417.9316)" style="fill:#FFFFFF;" width="78.366" height="111.383"/>
					<g>
						
							<rect x="1802.3" y="799.135" transform="matrix(0.9701 0.2429 -0.2429 0.9701 249.7491 -421.7634)" style="fill:#F4F7FD;" width="65.91" height="5.586"/>
						
							<rect x="1799.376" y="810.813" transform="matrix(0.9701 0.2429 -0.2429 0.9701 252.4986 -420.7039)" style="fill:#F4F7FD;" width="65.909" height="5.586"/>
						
							<rect x="1796.452" y="822.491" transform="matrix(0.9701 0.2429 -0.2429 0.9701 255.2471 -419.6434)" style="fill:#F4F7FD;" width="65.91" height="5.585"/>
						
							<rect x="1793.527" y="834.169" transform="matrix(0.9701 0.2429 -0.2429 0.9701 257.9957 -418.5828)" style="fill:#F4F7FD;" width="65.91" height="5.586"/>
						
							<rect x="1790.603" y="845.847" transform="matrix(0.9701 0.2429 -0.2429 0.9701 260.7447 -417.5228)" style="fill:#F4F7FD;" width="65.91" height="5.586"/>
						
							<rect x="1787.679" y="857.526" transform="matrix(0.9701 0.2429 -0.2429 0.9701 263.4942 -416.4633)" style="fill:#F4F7FD;" width="65.91" height="5.586"/>
						
							<rect x="1784.755" y="869.204" transform="matrix(0.9701 0.2429 -0.2429 0.9701 266.2437 -415.4039)" style="fill:#F4F7FD;" width="65.909" height="5.586"/>
						
							<rect x="1781.831" y="880.882" transform="matrix(0.9701 0.2429 -0.2429 0.9701 268.9922 -414.3433)" style="fill:#F4F7FD;" width="65.91" height="5.586"/>
					</g>
				</g>
				<path style="fill:#0C203F;" d="M1851.676,796.417l-27.269-6.828c-0.757-0.19-1.217-0.957-1.027-1.714l3.998-15.966
					c0.189-0.757,0.957-1.217,1.714-1.027l27.269,6.828c0.757,0.19,1.217,0.957,1.027,1.714l-3.998,15.967
					C1853.201,796.146,1852.433,796.606,1851.676,796.417z"/>
			</g>
			<path style="fill:#FFC0B1;" d="M1758.822,827.156l19.808-7.336c2.376-0.88,4.987-0.895,7.373-0.041l26.553,9.497
				c1.55,0.554,1.903,2.587,0.632,3.632l-1.693,1.391c-1.478,1.215-3.315,1.911-5.227,1.979l-28.68,1.034l-5.905,23.583
				l-12.541-5.622L1758.822,827.156z"/>
		</g>
	</g>
	<g>
		<g>
			<path style="fill:#102A54;" d="M877.325,954.629c6.958-3.498,14.988-4.11,22.776-4.145c7-0.031,14.075,0.365,20.8,2.308
				c6.725,1.943,13.128,5.544,17.473,11.033c5.695,7.194,7.303,16.791,7.602,25.962c0.299,9.17-0.507,18.443,1.182,27.462
				c1.613,8.619,5.486,16.912,5.304,25.679c-0.215,10.346-5.994,19.607-9.974,29.159c-4.779,11.47-7.073,23.968-6.681,36.388
				c-6.195-3.192-13.277-4.639-20.227-4.133c-4.351,0.317-8.743,1.376-13.024,0.537c-4.611-0.904-8.485-3.886-12.516-6.299
				c-4.031-2.413-8.871-4.356-13.346-2.925c-4.253-11.04-4.33-23.736-3.934-35.56c0.436-13.007,0.875-26.045,2.722-38.927
				c0.772-5.384,1.789-10.736,2.341-16.148c0.632-6.189,0.654-12.424,0.631-18.645C878.415,975.781,877.617,965.22,877.325,954.629z
				"/>
			<g>
				<path style="fill:#FFB841;" d="M975.912,1409.998l-3.429,27.75c-0.531,4.301-4.951,6.969-9.004,5.434l-42.998-16.274v-16.91
					H975.912z"/>
				<g>
					<path style="fill:#80C0FF;" d="M816.487,1412.263l296.599-4.213c7.31-0.104,13.152-6.114,13.048-13.424l-2.724-191.755
						c-0.104-7.31-6.114-13.152-13.424-13.048l-296.599,4.213c-7.31,0.104-13.152,6.114-13.048,13.424l2.724,191.755
						C803.167,1406.525,809.177,1412.367,816.487,1412.263z"/>
					<path style="fill:#102A54;" d="M962.75,1296.287c-5.44,0-10.883-1.508-15.673-4.536l-144.723-91.465
						c-0.364-0.23-0.472-0.711-0.242-1.074c0.231-0.363,0.712-0.47,1.074-0.241l144.723,91.464
						c9.303,5.877,21.215,5.708,30.348-0.432l142.067-95.537c0.355-0.242,0.84-0.145,1.08,0.212c0.24,0.357,0.145,0.84-0.212,1.081
						l-142.067,95.537C974.183,1294.619,968.469,1296.287,962.75,1296.287z"/>
				</g>
				<path style="fill:#FFFFFF;" d="M735.867,1343.888l47.749-211.729c3.036-19.303,21.146-32.49,40.449-29.454l86.262,13.568
					c12.531,1.971,22.478,10.298,27.089,21.177l0.001-0.009l29.151,54.419l-30.435,0.432l-18.474,180.19L735.867,1343.888z"/>
				<path style="fill:#FFC0B1;" d="M833.442,1103.369c-2.907,18.48,9.788,35.353,28.268,38.26
					c18.48,2.907,35.745-9.254,38.652-27.734L833.442,1103.369z"/>
				<path style="fill:#FFC0B1;" d="M864.421,1129.48L864.421,1129.48c11.388,1.791,21.888-6.497,22.791-17.989l5.411-68.859
					l-27.619-4.344l-16.7,66.861C845.491,1116.418,852.947,1127.676,864.421,1129.48z"/>
				<path style="fill:#FFC0B1;" d="M849.209,971.444l87.369,13.742l-1.581,5.304c-5.466,18.338-9.249,37.154-10.961,56.213
					c-0.819,9.119-3.156,19.768-9.026,27.754c-11.514,15.665-33.279,20.066-49.464,9.295
					C849.232,1072.894,826.004,1043.259,849.209,971.444z"/>
				<path style="fill:#102A54;" d="M896.922,1044.405c-0.215,0-0.432-0.016-0.649-0.051l-8.068-1.27
					c-0.508-0.079-0.855-0.556-0.775-1.064c0.081-0.507,0.558-0.86,1.065-0.774l8.068,1.27c0.696,0.107,1.389-0.108,1.899-0.598
					c0.51-0.488,0.755-1.171,0.675-1.872l-3.025-26.371c-0.058-0.511,0.308-0.972,0.819-1.031c0.513-0.064,0.972,0.308,1.031,0.819
					l3.025,26.371c0.147,1.284-0.304,2.533-1.236,3.428C898.976,1044.004,897.971,1044.405,896.922,1044.405z"/>
				<path style="fill:#102A54;" d="M885.991,1014.522c-0.385,2.45-2.684,4.124-5.134,3.739c-2.45-0.385-4.124-2.684-3.739-5.134
					c0.385-2.45,2.684-4.124,5.134-3.739C884.702,1009.773,886.376,1012.072,885.991,1014.522z"/>
				<path style="fill:#102A54;" d="M917.772,1018.624c-0.385,2.45-2.684,4.124-5.134,3.738c-2.45-0.385-4.124-2.684-3.739-5.134
					c0.385-2.45,2.684-4.124,5.134-3.738C916.483,1013.875,918.157,1016.174,917.772,1018.624z"/>
				<path style="fill:#102A54;" d="M871.758,1007.935c-0.678,0-1.354-0.277-1.843-0.821c-0.914-1.017-0.83-2.582,0.187-3.496
					c8.949-8.038,20.448-0.826,20.933-0.515c1.151,0.738,1.486,2.269,0.748,3.42c-0.737,1.15-2.263,1.485-3.414,0.752
					c-0.362-0.228-8.831-5.482-14.959,0.026C872.938,1007.725,872.346,1007.935,871.758,1007.935z"/>
				<path style="fill:#102A54;" d="M904.259,1010.74c-0.678,0-1.354-0.277-1.842-0.821c-0.914-1.017-0.83-2.582,0.187-3.496
					c8.948-8.039,20.449-0.826,20.934-0.516c1.151,0.738,1.486,2.269,0.748,3.42c-0.737,1.149-2.263,1.483-3.414,0.752
					c-0.359-0.228-8.831-5.48-14.959,0.027C905.439,1010.531,904.848,1010.74,904.259,1010.74z"/>
				<path style="fill:#FFFFFF;" d="M884.529,1052.57c0,0,10.97,5.118,20.294,0.398c0,0,1.486,11.439-9.949,10.54
					C883.44,1062.61,884.529,1052.57,884.529,1052.57z"/>
				<path style="fill:#102A54;" d="M892.486,1064.086c-0.085,0-0.172-0.012-0.257-0.036c-9.458-2.714-8.635-11.49-8.626-11.578
					l0.131-1.234l1.148,0.471c12.031,4.935,19.374,0.516,19.447,0.47c0.435-0.272,1.01-0.139,1.282,0.296
					c0.272,0.435,0.142,1.007-0.291,1.282c-0.316,0.198-7.654,4.681-19.857,0.177c0.177,2.193,1.298,6.61,7.279,8.326
					c0.494,0.142,0.78,0.658,0.638,1.151C893.263,1063.82,892.89,1064.086,892.486,1064.086z"/>
				<path style="fill:#102A54;" d="M867.29,1143.711c-1.642,0-3.358-0.085-5.156-0.264c-0.512-0.051-0.885-0.507-0.834-1.019
					c0.051-0.513,0.504-0.885,1.018-0.835c32.916,3.288,37.456-25.703,37.634-26.938c0.072-0.509,0.539-0.862,1.053-0.79
					c0.508,0.073,0.862,0.543,0.79,1.053C901.752,1115.221,897.335,1143.711,867.29,1143.711z"/>
				<g>
					<path style="fill:#102A54;" d="M979.936,1542.671c-4.368-27.791-62.277-170.188-62.277-170.188l-69.949-11.003l-111.843-17.592
						c-28.496,18.74-38.273,192.382-38.273,192.382l-126.823,249.683l44.44,18.495c0,0,166.932-228.546,176.779-252.325
						c4.507-10.883,16.559-51.737,28.307-92.849c30.454,58.255,74.397,103.142,74.397,103.142l-6.344,259.984h47.784
						C936.134,1822.401,984.303,1570.463,979.936,1542.671z"/>
					<path style="fill:#0C203F;" d="M820.296,1459.274l6.123-42.238l36.946,108.59
						C863.365,1525.627,828.609,1480.889,820.296,1459.274z"/>
				</g>
				<path style="fill:#FFB841;" d="M922.409,1120.514l13.725,71.778h44.082C980.216,1192.292,951.297,1128.209,922.409,1120.514z"/>
				<path style="fill:#FFB841;" d="M847.71,1282.757c-2.953-9.041-27.174-181.594-27.174-181.594s-35.778,2.206-57.755,36.97
					c-19.947,31.553-80.196,278.903-80.196,278.903s93.227-10.293,103.252-16.25c3.212-1.909,7.929-33.363,12.856-75.23
					c3.202,4.322,7.096,8.155,11.591,11.308h0c6.58,4.616,14.164,7.598,22.125,8.7l139.178,19.26l8.628-32.519
					C980.216,1332.305,850.663,1291.798,847.71,1282.757z"/>
				<g>
					<path style="fill:#FFC0B1;" d="M979.584,1334.688l3.801,1.244c1.453,0.475,3.008,0.524,4.488,0.141
						c5.691-1.474,18.132-6.757,20.065-6.054c2.408,0.875,20.547,11.451,19.004,16.649c-0.561,1.889-9.363,19.547-15.93,19.984
						c-6.567,0.438-20.795,1.313-23.422,0c-2.627-1.313-14.937-5.842-14.937-5.842L979.584,1334.688z"/>
					<path style="fill:#102A54;" d="M1025.114,1351.351h-5.777c-0.43,0-0.779-0.349-0.779-0.779c0-0.43,0.348-0.779,0.779-0.779
						h5.777c0.43,0,0.779,0.349,0.779,0.779C1025.893,1351.003,1025.544,1351.351,1025.114,1351.351z"/>
					<path style="fill:#102A54;" d="M1020.935,1357.247h-5.777c-0.43,0-0.779-0.349-0.779-0.778c0-0.43,0.349-0.779,0.779-0.779
						h5.777c0.43,0,0.779,0.349,0.779,0.779C1021.713,1356.899,1021.365,1357.247,1020.935,1357.247z"/>
					<path style="fill:#102A54;" d="M1016.615,1363.143h-5.776c-0.43,0-0.779-0.348-0.779-0.778s0.348-0.779,0.779-0.779h5.776
						c0.43,0,0.779,0.349,0.779,0.779S1017.045,1363.143,1016.615,1363.143z"/>
				</g>
				<path style="fill:#102A54;" d="M798.694,1326.335c-0.237,0-0.47-0.107-0.623-0.311c-0.102-0.136-10.287-13.84-16.566-33.12
					c-6.249-19.193-18.256-71.304-18.377-71.828c-0.096-0.419,0.165-0.837,0.584-0.933c0.418-0.099,0.837,0.165,0.934,0.584
					c0.12,0.523,12.112,52.569,18.34,71.695c6.199,19.038,16.23,32.534,16.331,32.669c0.258,0.344,0.189,0.831-0.156,1.09
					C799.021,1326.284,798.857,1326.335,798.694,1326.335z"/>
			</g>
			<path style="fill:#102A54;" d="M904.918,980.221c-2.92,5.189-8.331,8.899-14.223,9.753c-5.489,0.796-11.309-0.735-16.515,1.177
				c-6.168,2.265-9.727,8.732-11.644,15.016c-1.917,6.285-2.797,13.003-6.126,18.668c-2.76,4.697-7.125,8.516-8.766,13.711
				c-1.312,4.154-0.698,8.654,0.167,12.924c1.087,5.369,2.551,10.661,4.378,15.825c1.413,3.994,3.049,7.936,3.876,12.091
				c1.274,6.403,0.536,13.191-2.084,19.17c-5.435-4.247-12.056-6.96-18.909-7.748c-4.758-0.547-9.749-0.218-14.134-2.144
				c-6.734-2.958-10.212-10.344-12.713-17.26c-0.906-2.507-1.781-5.074-3.345-7.232c-2.961-4.084-7.901-6.109-12.216-8.722
				c-4.315-2.613-8.534-6.75-8.241-11.785c0.031-0.526,0.11-1.056,0.208-1.587c1.071-5.771,3.859-11.084,7.836-15.402
				c4.351-4.724,9.002-9.267,13.058-14.045c8.32-9.801,13.552-21.782,20.286-32.733c6.734-10.951,15.756-21.44,28.042-25.227
				c3.29-1.014,6.722-1.513,10.158-1.738c3.458-0.226,6.971-0.173,10.333,0.667c8.724,2.181,15.24,9.243,21.212,15.966
				C898.949,973.385,901.525,976.402,904.918,980.221z"/>
			<path style="fill:#102A54;" d="M903.042,974.731c-0.089,5.626,0.128,11.997,4.311,15.761c1.407,1.266,3.141,2.099,4.862,2.885
				c4.548,2.075,9.433,4.128,12.337,8.198c2.197,3.078,2.961,6.912,4.192,10.488c1.231,3.575,3.258,7.249,6.766,8.662
				c6.452-8.535,8.251-19.689,8.451-30.386c0.093-4.962-0.057-10.098-2.152-14.596c-2.418-5.19-7.175-8.939-12.229-11.63
				c-2.763-1.471-5.705-2.699-8.809-3.097C912.441,959.944,903.175,966.333,903.042,974.731z"/>
			<path style="fill:#102A54;" d="M882.723,1091.027c-5.312,0-12.509-1.197-17.84-6.622c-0.361-0.366-0.355-0.957,0.012-1.317
				c0.366-0.36,0.956-0.355,1.317,0.012c8.593,8.743,23.127,5.41,23.273,5.375c0.504-0.12,1.002,0.19,1.122,0.69
				c0.119,0.5-0.189,1.002-0.689,1.122C889.644,1090.351,886.715,1091.027,882.723,1091.027z"/>
		</g>
		<g>
			<g>
				<path style="fill:#102A54;" d="M896.864,1837.013l29.821,1.472l7.4,11.639l43.337,18.737c5.802,2.509,9.44,8.353,9.128,14.667
					l0,0l-97.157-4.795c-4.759-0.235-8.06-4.839-6.755-9.422L896.864,1837.013z"/>
			</g>
			<polygon style="fill:#FFC0B1;" points="928.424,1822.401 926.685,1838.485 896.864,1837.013 896.779,1822.401 			"/>
		</g>
		<g>
			<g>
				<path style="fill:#102A54;" d="M571.637,1802.85l27.94,10.527l3.483,13.345l35.524,31.099
					c4.756,4.164,6.431,10.841,4.202,16.757l0,0l-91.029-34.296c-4.459-1.68-6.193-7.073-3.548-11.037L571.637,1802.85z"/>
			</g>
			<polygon style="fill:#FFC0B1;" points="606.154,1800.679 599.577,1813.377 571.637,1802.85 576.912,1788.509 			"/>
		</g>
	</g>
</g>
<path style="fill:#102A54;" d="M3397.907,1888.951H119.904c-2.995,0-5.423-2.428-5.423-5.423s2.428-5.423,5.423-5.423h3278.003
	c2.996,0,5.424,2.428,5.424,5.423S3400.903,1888.951,3397.907,1888.951z"/>
<g>
	<g>
		<polygon style="fill:#102A54;" points="1048.174,1622.156 1137.005,1621.628 1225.836,1621.325 1403.498,1621.072 
			1581.16,1621.321 1669.991,1621.625 1758.822,1622.156 1669.991,1622.686 1581.16,1622.99 1403.498,1623.239 1225.836,1622.986 
			1137.005,1622.683 		"/>
		<polygon style="fill:#102A54;" points="1337.862,1409.998 1452.793,1409.471 1567.725,1409.167 1797.589,1408.915 
			2027.453,1409.164 2142.384,1409.467 2257.316,1409.998 2142.384,1410.529 2027.453,1410.832 1797.589,1411.081 
			1567.725,1410.829 1452.793,1410.526 		"/>
		<polygon style="fill:#102A54;" points="1062.18,1559.86 980.266,1560.388 898.351,1560.691 734.522,1560.944 570.693,1560.695 
			488.778,1560.391 406.863,1559.86 488.778,1559.33 570.693,1559.026 734.522,1558.777 898.351,1559.03 980.266,1559.333 		"/>
		<polygon style="fill:#102A54;" points="1787.603,1235.21 1705.689,1235.737 1623.774,1236.04 1459.945,1236.293 
			1296.116,1236.044 1214.201,1235.74 1132.286,1235.21 1214.201,1234.679 1296.116,1234.375 1459.945,1234.126 1623.774,1234.379 
			1705.689,1234.682 		"/>
	</g>
	<path style="fill:#102A54;" d="M587.262,819.149c14.719-0.244,29.438-0.35,44.156-0.529l44.156-0.302
		c29.438-0.179,58.875-0.162,88.313-0.253l88.313,0.249l44.156,0.303c14.719,0.18,29.438,0.286,44.156,0.532
		c-14.719,0.246-29.438,0.352-44.156,0.532l-44.156,0.303l-88.313,0.249c-29.438-0.091-58.875-0.074-88.313-0.253l-44.156-0.302
		C616.699,819.499,601.981,819.394,587.262,819.149z"/>
	<polygon style="fill:#102A54;" points="866.695,618.236 921.251,617.708 975.807,617.406 1084.919,617.153 1194.031,617.402 
		1248.587,617.705 1303.143,618.236 1248.587,618.768 1194.031,619.071 1084.919,619.32 975.807,619.067 921.251,618.765 	"/>
	<path style="fill:#102A54;" d="M535.068,684.67c11.64-0.244,23.279-0.35,34.919-0.528l34.918-0.302
		c23.279-0.179,46.558-0.162,69.837-0.253c23.279,0.085,46.558,0.076,69.837,0.249l34.919,0.303
		c11.64,0.18,23.279,0.286,34.918,0.532c-11.639,0.246-23.279,0.352-34.918,0.532l-34.919,0.303
		c-23.279,0.173-46.558,0.164-69.837,0.249c-23.279-0.091-46.558-0.074-69.837-0.253l-34.918-0.302
		C558.347,685.02,546.708,684.915,535.068,684.67z"/>
</g>
<g>
	
		<ellipse transform="matrix(0.1738 -0.9848 0.9848 0.1738 1152.7642 3612.0476)" style="fill:#102A54;" cx="2729.028" cy="1119.019" rx="658.794" ry="274.004"/>
	<g>
		<g>
			
				<ellipse transform="matrix(0.1738 -0.9848 0.9848 0.1738 1121.4674 3557.8113)" style="fill:#E6515C;" cx="2681.055" cy="1110.553" rx="658.794" ry="274.004"/>
			
				<ellipse transform="matrix(0.1738 -0.9848 0.9848 0.1738 1108.2992 3532.0232)" style="fill:#FFFFFF;" cx="2659.103" cy="1105.507" rx="402.109" ry="167.244"/>
			
				<ellipse transform="matrix(0.1738 -0.9848 0.9848 0.1738 1096.5255 3507.8181)" style="fill:#E6515C;" cx="2638.791" cy="1100.421" rx="198.006" ry="82.354"/>
		</g>
		<g>
			<g>
				<path style="fill:#102A54;" d="M2640.349,1097.445c-0.084,0-0.167-0.003-0.252-0.012l-508.779-49.923
					c-1.404-0.138-2.43-1.388-2.292-2.79c0.138-1.405,1.391-2.435,2.79-2.292l508.779,49.923c1.403,0.138,2.43,1.388,2.292,2.79
					C2642.758,1096.46,2641.647,1097.445,2640.349,1097.445z"/>
				<polygon style="fill:#102A54;" points="2146.825,1016.029 2164.862,1046.938 2140.677,1073.315 2023.731,1060.764 
					2047.916,1034.387 2029.879,1003.479 				"/>
			</g>
			<g>
				<path style="fill:#102A54;" d="M2637.366,1055.768c-0.219,0-0.443-0.034-0.663-0.105l-410.97-132.721
					c-1.133-0.366-1.755-1.581-1.39-2.715c0.366-1.134,1.579-1.755,2.716-1.39l410.97,132.72c1.134,0.367,1.755,1.583,1.39,2.716
					C2639.124,1055.187,2638.277,1055.768,2637.366,1055.768z"/>
				<polygon style="fill:#102A54;" points="2244.196,899.747 2253.524,928.503 2228.817,945.925 2134.547,914.531 2159.253,897.109 
					2149.925,868.353 				"/>
			</g>
			<g>
				<path style="fill:#102A54;" d="M2133.119,1196.727c-1.244,0-2.333-0.911-2.522-2.179c-0.208-1.394,0.755-2.693,2.15-2.9
					l505.668-75.153c1.386-0.211,2.693,0.754,2.9,2.15c0.208,1.394-0.755,2.693-2.15,2.9l-505.668,75.153
					C2133.371,1196.717,2133.245,1196.727,2133.119,1196.727z"/>
				<polygon style="fill:#102A54;" points="2124.257,1167.073 2149.698,1192.24 2133.19,1223.99 2016.995,1242.226 
					2033.503,1210.476 2008.062,1185.309 				"/>
			</g>
		</g>
	</g>
</g>
<g>
	<path style="fill:#6CB597;" d="M2818.317,1883.527c0,0,349.257-185.578,388.588-377.951c0,0-194.656,87.662-382.083,249.705
		c0,0,172.844-130.578,172.844-338.245c0,0-212.386,178.534-295.767,322.512c0,0,22.025-189.622-26.745-282.812
		c0,0-83.381,134.928-64.502,314.277c0,0-86.214-95.967-210.656-138.444c0,0,34.454,155.75,133.568,195.081
		c0,0-114.846-45.624-229.692-39.331c0,0,39.995,95.208,138.444,95.208C2461.194,1883.527,2818.317,1883.527,2818.317,1883.527z"/>
	<path style="fill:#102A54;" d="M2611.482,1883.527c0,0-40.931-21.763-74.018-110.772c0,0,78.703,26.448,112.432,55.386
		c0,0,47.784-68.503,119.928-126.593c0,0,21.55,80.576-28.108,138.666c0,0,89.144-46.055,241.328-62.379
		c0,0-57.689,87.167-143.887,105.691H2611.482z"/>
</g>
</svg>
